<?xml version="1.0" standalone="no"?><!DOCTYPE svg PUBLIC "-//W3C//DTD SVG 1.1//EN" "http://www.w3.org/Graphics/SVG/1.1/DTD/svg11.dtd"><svg t="1657110067067" class="icon" viewBox="0 0 1024 1024" version="1.1" xmlns="http://www.w3.org/2000/svg" p-id="6720" xmlns:xlink="http://www.w3.org/1999/xlink" width="128" height="128"><defs><style type="text/css">@font-face { font-family: feedback-iconfont; src: url("//at.alicdn.com/t/font_1031158_u69w8yhxdu.woff2?t=1630033759944") format("woff2"), url("//at.alicdn.com/t/font_1031158_u69w8yhxdu.woff?t=1630033759944") format("woff"), url("//at.alicdn.com/t/font_1031158_u69w8yhxdu.ttf?t=1630033759944") format("truetype"); }
</style></defs><path d="M511.984 64C264.976 64 64 264.96 64 512.016 64 759.024 264.976 960 511.984 960 759.056 960 960 759.024 960 512.016 960 264.944 759.024 64 511.984 64z" fill="#FFBD27" p-id="6721"></path><path d="M695.76 552.16h-143.616v143.536A40.224 40.224 0 0 1 512 735.936a40.256 40.256 0 0 1-40.128-40.24v-143.52h-143.632a40.208 40.208 0 1 1 0-80.4h143.632v-143.584a40.16 40.16 0 1 1 80.288 0v143.568h143.616a40.208 40.208 0 1 1 0 80.416z" fill="#333333" p-id="6722"></path></svg>