<?xml version="1.0" standalone="no"?><!DOCTYPE svg PUBLIC "-//W3C//DTD SVG 1.1//EN" "http://www.w3.org/Graphics/SVG/1.1/DTD/svg11.dtd"><svg t="1657110485668" class="icon" viewBox="0 0 1024 1024" version="1.1" xmlns="http://www.w3.org/2000/svg" p-id="6861" width="128" height="128" xmlns:xlink="http://www.w3.org/1999/xlink"><defs><style type="text/css">@font-face { font-family: feedback-iconfont; src: url("//at.alicdn.com/t/font_1031158_u69w8yhxdu.woff2?t=1630033759944") format("woff2"), url("//at.alicdn.com/t/font_1031158_u69w8yhxdu.woff?t=1630033759944") format("woff"), url("//at.alicdn.com/t/font_1031158_u69w8yhxdu.ttf?t=1630033759944") format("truetype"); }
</style></defs><path d="M512.3 3.5c-280.6 0-508 227.4-508 508s227.4 508 508 508 508-227.4 508-508-227.5-508-508-508zM731.6 535H535.7v195.9c0 13-10.5 23.4-23.4 23.4-13 0-23.4-10.5-23.4-23.4V535h-196c-13 0-23.4-10.5-23.4-23.4 0-13 10.5-23.4 23.4-23.4h195.9v-196c0-13 10.5-23.4 23.4-23.4 13 0 23.4 10.5 23.4 23.4v196h195.9c13 0 23.4 10.5 23.4 23.4 0.2 12.9-10.3 23.4-23.3 23.4z" fill="#cdcdcd" p-id="6862"></path></svg>