<?xml version="1.0" standalone="no"?><!DOCTYPE svg PUBLIC "-//W3C//DTD SVG 1.1//EN" "http://www.w3.org/Graphics/SVG/1.1/DTD/svg11.dtd"><svg t="1657108374114" class="icon" viewBox="0 0 1024 1024" version="1.1" xmlns="http://www.w3.org/2000/svg" p-id="1546" xmlns:xlink="http://www.w3.org/1999/xlink" width="200" height="200"><defs><style type="text/css">@font-face { font-family: feedback-iconfont; src: url("//at.alicdn.com/t/font_1031158_u69w8yhxdu.woff2?t=1630033759944") format("woff2"), url("//at.alicdn.com/t/font_1031158_u69w8yhxdu.woff?t=1630033759944") format("woff"), url("//at.alicdn.com/t/font_1031158_u69w8yhxdu.ttf?t=1630033759944") format("truetype"); }
</style></defs><path d="M474.9 880.6C249.5 880.6 66.2 697.3 66.2 472S249.5 63.4 474.8 63.4 883.5 246.7 883.5 472 700.2 880.6 474.9 880.6z m0-776.1c-202.6 0-367.5 164.8-367.5 367.5 0 202.6 164.8 367.5 367.5 367.5S842.3 674.6 842.3 472 677.5 104.5 474.9 104.5z" fill="#4F4F4F" p-id="1547"></path><path d="M937.7 960.2c-5.3 0-10.5-2-14.6-6L733.1 764c-8-8-8-21.1 0-29.1s21.1-8 29.1 0L952.3 925c8 8 8 21.1 0 29.1-4 4.1-9.3 6.1-14.6 6.1z" fill="#4F4F4F" p-id="1548"></path></svg>